<?xml version="1.0" encoding="iso-8859-1"?>
<!-- Uploaded to: SVG Repo, www.svgrepo.com, Generator: SVG Repo Mixer Tools -->
<svg fill="#000000" height="800px" width="800px" version="1.1" id="Layer_1" xmlns="http://www.w3.org/2000/svg" xmlns:xlink="http://www.w3.org/1999/xlink" 
	 viewBox="0 0 511.999 511.999" xml:space="preserve">
<g>
	<g>
		<path d="M122.446,355.075c-12.273,0-22.259,9.985-22.259,22.259c0,12.273,9.985,22.259,22.259,22.259
			c12.274,0,22.259-9.985,22.259-22.259C144.705,365.06,134.72,355.075,122.446,355.075z"/>
	</g>
</g>
<g>
	<g>
		<path d="M189.223,355.075c-12.274,0-22.259,9.985-22.259,22.259c0,12.273,9.985,22.259,22.259,22.259
			c12.273,0,22.259-9.985,22.259-22.259C211.482,365.06,201.496,355.075,189.223,355.075z"/>
	</g>
</g>
<g>
	<g>
		<path d="M389.553,355.075c-12.274,0-22.259,9.985-22.259,22.259c0,12.273,9.985,22.259,22.259,22.259s22.259-9.985,22.259-22.259
			C411.811,365.06,401.826,355.075,389.553,355.075z"/>
	</g>
</g>
<g>
	<g>
		<path d="M322.776,355.075c-12.273,0-22.259,9.985-22.259,22.259c0,12.273,9.985,22.259,22.259,22.259
			c12.274,0,22.259-9.985,22.259-22.259C345.035,365.06,335.05,355.075,322.776,355.075z"/>
	</g>
</g>
<g>
	<g>
		<path d="M255.999,355.075c-12.273,0-22.259,9.985-22.259,22.259c0,12.273,9.985,22.259,22.259,22.259
			c12.274,0,22.259-9.985,22.259-22.259C278.258,365.06,268.273,355.075,255.999,355.075z"/>
	</g>
</g>
<g>
	<g>
		<path d="M422.591,311.032c-5.516-87.104-78.121-156.285-166.592-156.285S94.923,223.927,89.408,311.032
			C39.31,315.906,0.023,358.255,0.023,409.61v23.372c0,0.495,0.043,0.979,0.106,1.457c0.014,0.114,0.033,0.225,0.051,0.337
			c0.072,0.446,0.167,0.885,0.29,1.311c0.01,0.034,0.017,0.069,0.027,0.102c0.142,0.474,0.321,0.933,0.523,1.378
			c0.038,0.082,0.079,0.162,0.118,0.245c0.195,0.402,0.408,0.791,0.648,1.164c0.022,0.035,0.037,0.072,0.059,0.107
			c0.017,0.026,0.036,0.051,0.052,0.077c0.019,0.029,0.039,0.057,0.058,0.086c29.953,45.558,80.366,72.753,134.897,72.753h238.291
			c54.533,0,104.945-27.195,134.898-72.753c0.019-0.029,0.039-0.057,0.058-0.086c0.017-0.026,0.036-0.051,0.052-0.077
			c0.022-0.034,0.038-0.072,0.059-0.107c0.239-0.373,0.454-0.763,0.648-1.164c0.042-0.082,0.085-0.162,0.121-0.245
			c0.203-0.445,0.381-0.904,0.523-1.378c0.01-0.033,0.017-0.069,0.027-0.102c0.123-0.426,0.217-0.865,0.29-1.311
			c0.019-0.112,0.037-0.224,0.051-0.337c0.062-0.477,0.106-0.962,0.106-1.457V409.61
			C511.976,358.254,472.689,315.906,422.591,311.032z M255.999,177.005c76.033,0,138.557,58.956,144.258,133.553H111.741
			C117.443,235.96,179.967,177.005,255.999,177.005z M489.717,421.852H166.964c-6.146,0-11.129,4.984-11.129,11.129
			c0,6.146,4.984,11.129,11.129,11.129h311.24c-26.155,28.882-63.335,45.631-103.058,45.631H136.853
			c-39.723,0-76.903-16.749-103.058-45.631h66.763c6.146,0,11.129-4.984,11.129-11.129c0-6.146-4.984-11.129-11.129-11.129H22.282
			v-12.242c0-42.344,34.449-76.793,76.793-76.793h1.113h311.624h1.113c42.344,0,76.793,34.449,76.793,76.793V421.852z"/>
	</g>
</g>
<g>
	<g>
		<path d="M126.492,95.644c-1.31-4.029-4.792-6.966-8.984-7.576l-30.227-4.392l-13.518-27.39c-1.875-3.8-5.743-6.205-9.98-6.205
			c-4.237,0-8.106,2.405-9.981,6.204L40.286,83.675l-30.227,4.392c-4.192,0.61-7.675,3.547-8.984,7.576
			c-1.309,4.029-0.217,8.452,2.816,11.409l21.873,21.321L20.6,158.476c-0.716,4.176,1.001,8.395,4.428,10.885
			c1.939,1.41,4.236,2.126,6.543,2.126c1.772,0,3.549-0.423,5.177-1.278l27.034-14.213l27.036,14.213
			c3.748,1.969,8.291,1.643,11.72-0.848c3.427-2.49,5.143-6.709,4.428-10.885l-5.163-30.104l21.872-21.32
			C126.71,104.096,127.801,99.673,126.492,95.644z M82.078,116.517c-2.622,2.558-3.82,6.24-3.201,9.852l2.341,13.645l-12.255-6.443
			c-1.62-0.852-3.4-1.278-5.179-1.278c-1.778,0-3.558,0.426-5.179,1.278l-12.253,6.443l2.341-13.645
			c0.619-3.61-0.579-7.294-3.201-9.852l-9.914-9.664l13.7-1.991c3.625-0.528,6.758-2.805,8.379-6.089l6.126-12.414l6.127,12.414
			c1.622,3.284,4.754,5.561,8.379,6.089l13.703,1.991L82.078,116.517z"/>
	</g>
</g>
<g>
	<g>
		<path d="M510.923,95.644c-1.31-4.029-4.792-6.966-8.984-7.576l-30.228-4.392l-13.517-27.389c-1.875-3.799-5.744-6.204-9.981-6.204
			c-4.236,0-8.106,2.405-9.981,6.204l-13.518,27.389l-30.227,4.392c-4.192,0.61-7.675,3.547-8.984,7.576
			c-1.309,4.029-0.217,8.452,2.816,11.409l21.874,21.32l-5.163,30.104c-0.716,4.176,1.001,8.395,4.428,10.885
			c3.427,2.491,7.972,2.817,11.72,0.848l27.036-14.213l27.034,14.213c1.628,0.856,3.407,1.278,5.177,1.278
			c2.307,0,4.604-0.718,6.543-2.126c3.427-2.49,5.143-6.709,4.428-10.885l-5.163-30.104l21.872-21.32
			C511.141,104.096,512.232,99.673,510.923,95.644z M466.509,116.517c-2.622,2.558-3.82,6.24-3.201,9.852l2.341,13.645
			l-12.253-6.443c-3.243-1.704-7.117-1.704-10.358,0l-12.255,6.443l2.34-13.645c0.619-3.61-0.579-7.294-3.201-9.852l-9.914-9.664
			l13.701-1.991c3.625-0.528,6.758-2.805,8.379-6.089l6.127-12.414l6.126,12.414c1.622,3.284,4.755,5.561,8.379,6.089l13.703,1.991
			L466.509,116.517z"/>
	</g>
</g>
<g>
	<g>
		<path d="M326.034,50.884c-1.31-4.029-4.792-6.966-8.985-7.576l-35.288-5.126L265.979,6.205c-1.874-3.8-5.743-6.205-9.98-6.205
			c-4.237,0-8.106,2.405-9.981,6.204l-15.781,31.977l-35.288,5.126c-4.194,0.61-7.675,3.547-8.985,7.576
			c-1.309,4.028-0.217,8.452,2.816,11.409l25.535,24.892l-6.028,35.146c-0.717,4.176,1,8.395,4.428,10.885
			c3.428,2.49,7.972,2.817,11.72,0.848l31.563-16.594l31.563,16.594c1.628,0.857,3.407,1.278,5.177,1.278
			c2.307,0,4.604-0.718,6.543-2.126c3.427-2.49,5.144-6.709,4.428-10.885l-6.028-35.146l25.534-24.891
			C326.252,59.335,327.342,54.911,326.034,50.884z M277.957,75.328c-2.622,2.557-3.82,6.24-3.201,9.852l3.205,18.686l-16.782-8.823
			c-1.62-0.853-3.4-1.278-5.179-1.278c-1.778,0-3.558,0.426-5.179,1.278l-16.782,8.823l3.205-18.686
			c0.619-3.61-0.579-7.294-3.201-9.852l-13.577-13.235l18.761-2.726c3.626-0.528,6.759-2.805,8.38-6.089l8.391-17.001l8.39,17.001
			c1.622,3.284,4.755,5.561,8.38,6.089l18.762,2.726L277.957,75.328z"/>
	</g>
</g>
<g>
	<g>
		<path d="M133.946,421.852h-0.371c-6.146,0-11.129,4.984-11.129,11.129c0,6.146,4.984,11.129,11.129,11.129h0.371
			c6.146,0,11.129-4.984,11.129-11.129C145.076,426.835,140.092,421.852,133.946,421.852z"/>
	</g>
</g>
</svg>